<?xml version="1.0" encoding="utf-8"?>
<!-- Generator: Adobe Illustrator 21.1.0, SVG Export Plug-In . SVG Version: 6.00 Build 0)  -->
<svg version="1.1" id="Layer_1" xmlns="http://www.w3.org/2000/svg" xmlns:xlink="http://www.w3.org/1999/xlink" x="0px" y="0px"
	 viewBox="0 0 725.3 725.3" style="enable-background:new 0 0 725.3 725.3;" xml:space="preserve">
<style type="text/css">
	.st0{fill:#FFFFFF;}
	.st1{fill:#6F6F6F;}
	.st2{fill:#939393;}
	.st3{fill:#919191;}
</style>
<g>
	<g>
		<circle class="st0" cx="362.7" cy="362.7" r="348.7"/>
		<path class="st0" d="M362.7,712.7c-47.2,0-93.1-9.3-136.2-27.5c-41.7-17.6-79.1-42.9-111.3-75s-57.4-69.6-75-111.3
			c-18.3-43.2-27.5-89-27.5-136.2c0-47.2,9.3-93.1,27.5-136.2c17.6-41.7,42.9-79.1,75-111.3c32.1-32.1,69.6-57.4,111.3-75
			c43.2-18.3,89-27.5,136.2-27.5s93.1,9.3,136.2,27.5c41.7,17.6,79.1,42.9,111.3,75c32.1,32.1,57.4,69.6,75,111.3
			c18.3,43.2,27.5,89,27.5,136.2c0,47.2-9.3,93.1-27.5,136.2c-17.6,41.7-42.9,79.1-75,111.3s-69.6,57.4-111.3,75
			C455.7,703.4,409.9,712.7,362.7,712.7z M362.7,15.2c-46.9,0-92.4,9.2-135.2,27.3C186.1,60,148.9,85.1,117,117
			c-31.9,31.9-57,69.1-74.5,110.4c-18.1,42.8-27.3,88.3-27.3,135.2s9.2,92.4,27.3,135.2C60,539.3,85.1,576.4,117,608.3
			c31.9,31.9,69.1,57,110.4,74.5c42.8,18.1,88.3,27.3,135.2,27.3s92.4-9.2,135.2-27.3c41.4-17.5,78.5-42.5,110.4-74.5
			c31.9-31.9,57-69.1,74.5-110.4c18.1-42.8,27.3-88.3,27.3-135.2s-9.2-92.4-27.3-135.2c-17.5-41.4-42.5-78.5-74.5-110.4
			c-31.9-31.9-69.1-57-110.4-74.5C455.1,24.4,409.6,15.2,362.7,15.2z"/>
	</g>
	<g>
		<circle class="st0" cx="362.7" cy="362.7" r="305.3"/>
		<path class="st1" d="M362.7,679.6c-42.8,0-84.3-8.4-123.4-24.9c-37.7-16-71.6-38.8-100.8-67.9c-29.1-29.1-52-63-67.9-100.8
			C54.1,447,45.7,405.4,45.7,362.7c0-42.8,8.4-84.3,24.9-123.4c16-37.7,38.8-71.6,67.9-100.8c29.1-29.1,63-52,100.8-67.9
			c39.1-16.5,80.6-24.9,123.4-24.9S447,54.1,486,70.6c37.7,16,71.6,38.8,100.8,67.9c29.1,29.1,52,63,67.9,100.8
			c16.5,39.1,24.9,80.6,24.9,123.4c0,42.8-8.4,84.3-24.9,123.4c-16,37.7-38.8,71.6-67.9,100.8c-29.1,29.1-63,52-100.8,67.9
			C447,671.3,405.4,679.6,362.7,679.6z M362.7,69c-78.5,0-152.2,30.6-207.7,86c-55.5,55.5-86,129.2-86,207.7
			c0,78.5,30.6,152.2,86,207.7c55.5,55.5,129.2,86,207.7,86s152.2-30.6,207.7-86c55.5-55.5,86-129.2,86-207.7
			c0-78.5-30.6-152.2-86-207.7C514.9,99.5,441.1,69,362.7,69z"/>
	</g>
	<g>
		<g>
			<polygon class="st2" points="490.7,269 484.3,260.4 474.8,260.4 466.1,260.4 460.3,260.4 471.8,265.1 478.5,269.9 481.6,267.7 
				485,272.5 491.7,272.5 501.2,286 508.8,293.6 508.8,293.6 502.9,269 			"/>
		</g>
		<g>
			<path class="st2" d="M426.6,223.1c0,0-13.8,5.7-15.9,6.5c-2,0.7-6.4-6.7-6.4-6.7l-4.7,6.7l-5.6-6.7l-3.2,7.1l-4.4,5.4h-6.8
				l-18.2,25.1h-9.5h-4.4h-7.1h-3.7l-5.1,3.6l-18.4-3.6l-18.6,36.4l11-10.8l10.8,7.4l7.1-12.2l6.4,8.3l9.1-12.6l4.7,10.5l7.4-14.8
				l7.1,8.7l3.7-20.9l13.2-8.3l5.4,6.5l15.2-10.5l5.7,13.1l14.5-13.1l13.8,14.4l10.1-7l7.4,7.8v-7.8l12.3,4.7l-19.1-20.6
				L426.6,223.1z"/>
		</g>
		<g>
			<path class="st1" d="M534,363.7h6.5l-0.1-0.4h-1.2C537.4,363.5,535.7,363.6,534,363.7z"/>
		</g>
		<g>
			<path class="st1" d="M539.1,363.3h1.2l0-0.1C539.9,363.3,539.5,363.3,539.1,363.3z"/>
		</g>
		<g>
			<path class="st1" d="M533.9,342.2l-7.5-14L509.6,297l-0.8-3.4l-7.6-7.6l-9.5-13.5H485l-3.4-4.8l-3,2.2l-6.8-4.8l-11.5-4.7H460
				l-0.2-0.2l-12.3-4.7v7.8l-7.4-7.8l-10.1,7l-13.8-14.4l-14.5,13.1l-5.7-13.1l-15.2,10.5l-5.4-6.5l-13.2,8.3l-3.7,20.9l-7.1-8.7
				l-7.4,14.8l-4.7-10.5l-9.1,12.6l-6.4-8.3l-7.1,12.2l-10.8-7.4l-11,10.8l-0.1,0.2v-0.1l-1.6-3.5l-2.8,3.6l-9.5-5.7h-6.4l-6.1,7.9
				h-4.7l-6.4,4.3H252h-6.1h-3.4L224,330l-7.1,10.1h-3.7h-7.8l-6.8,4.3l-5.4,9.3l-3,3.6l-5.3,6c0.3,0,0.7,0.1,1,0.1
				c1.7,0.1,3.4,0.3,5.2,0.4c114.1,8.6,228.8,8.6,342.9,0c1.7-0.1,3.4-0.3,5.2-0.4c0.4,0,0.8-0.1,1.2-0.1L533.9,342.2z"/>
		</g>
	</g>
	<g>
		<path class="st1" d="M253.1,210.1l14.6-10.1l4.8,6.9l-22.9,15.8l-28.4-41.2l8.3-5.7L253.1,210.1z"/>
		<path class="st1" d="M300.3,172c2.6,6.2,3.2,11.6,1.8,16.3s-4.8,8.1-10,10.3c-5.2,2.2-9.9,2.2-14.3,0.1s-7.9-6.2-10.5-12.3
			l-3.4-7.9c-2.7-6.3-3.3-11.9-1.9-16.7c1.4-4.8,4.7-8.3,9.9-10.5c5.1-2.2,9.9-2.2,14.3,0.1c4.4,2.2,8,6.5,10.7,12.8L300.3,172z
			 M287.7,168.3c-1.8-4.2-3.7-7-5.7-8.5c-2-1.5-4.3-1.8-6.8-0.7c-2.5,1.1-3.9,2.8-4.2,5.3c-0.4,2.5,0.3,5.7,2,9.7l3.5,8.2
			c1.7,4,3.6,6.7,5.6,8.1c2,1.4,4.3,1.6,6.8,0.5c2.4-1,3.8-2.7,4.2-5.1c0.4-2.4-0.2-5.5-1.9-9.4L287.7,168.3z"/>
		<path class="st1" d="M321.2,137l14.3,34.5l4.3-37.1l13.1-1.8l6.9,49.6l-10,1.4l-1.9-13.4l-2-20.8l-5.2,35.5l-6.8,0.9l-14.6-32.7
			l3.8,20.5l1.9,13.4l-10,1.4l-6.9-49.6L321.2,137z"/>
		<path class="st1" d="M405.3,166.7c-0.8,6.7-3,11.6-6.6,14.9c-3.6,3.3-8.2,4.6-13.8,3.9c-5.6-0.7-9.7-3-12.5-7.1
			c-2.7-4-3.7-9.4-3-15.9l1-8.5c0.8-6.8,3.1-12,6.7-15.4c3.6-3.4,8.3-4.8,13.9-4.1c5.5,0.7,9.6,3.1,12.4,7.3
			c2.7,4.2,3.7,9.6,2.9,16.4L405.3,166.7z M396.3,157.2c0.6-4.5,0.3-7.9-0.7-10.2c-1-2.3-2.9-3.7-5.5-4c-2.7-0.3-4.8,0.5-6.3,2.4
			c-1.5,1.9-2.6,5.1-3.2,9.4l-1.1,8.8c-0.5,4.3-0.3,7.6,0.8,9.8c1,2.2,2.9,3.5,5.6,3.8c2.6,0.3,4.7-0.4,6.2-2.3
			c1.5-1.9,2.6-4.9,3.1-9.1L396.3,157.2z"/>
		<path class="st1" d="M442.7,201.2l-9.5-3.6l-2.3-35.9l-11.6,30.7l-9.5-3.6l17.6-46.8l9.5,3.6l2.3,36l11.6-30.8l9.4,3.5
			L442.7,201.2z"/>
		<path class="st1" d="M450,205.2l27.8-41.6l11,7.4c4.9,3.2,7.7,7.4,8.5,12.4s-0.5,10.2-4.1,15.6l-4.5,6.7c-3.7,5.5-8,8.8-12.9,10
			s-10,0.1-15.1-3.3L450,205.2z M481.5,176.2l-18.5,27.6l2.5,1.7c2.8,1.9,5.3,2.5,7.4,1.7c2.1-0.7,4.4-2.9,6.9-6.4l4.8-7.2
			c2.6-3.9,3.9-7,3.8-9.2c-0.1-2.3-1.4-4.3-3.9-6.1L481.5,176.2z"/>
	</g>
	<g>
		<g>
			<path class="st1" d="M182.3,410.2c0.4-5.6,0.9-11.2,1.3-16.8c-0.9-0.1-1.7-0.1-2.6-0.2c0.1-0.9,0.1-1.9,0.2-2.8
				c2.9,0.2,5.7,0.4,8.6,0.7c-0.1,0.9-0.1,1.9-0.2,2.8c-0.9-0.1-1.8-0.1-2.7-0.2c-0.2,2.1-0.3,4.3-0.5,6.4c3.3,0.2,6.6,0.5,9.8,0.7
				c0.2-2.1,0.3-4.3,0.5-6.4c-0.9-0.1-1.8-0.1-2.6-0.2c0.1-0.9,0.1-1.9,0.2-2.8c2.9,0.2,5.7,0.4,8.6,0.6c-0.1,0.9-0.1,1.9-0.2,2.8
				c-0.9-0.1-1.7-0.1-2.6-0.2c-0.4,5.6-0.8,11.2-1.2,16.9c0.9,0.1,1.7,0.1,2.6,0.2c-0.1,0.9-0.1,1.9-0.2,2.8
				c-2.9-0.2-5.8-0.4-8.7-0.6c0.1-0.9,0.1-1.9,0.2-2.8c0.9,0.1,1.8,0.1,2.7,0.2c0.2-2.5,0.4-5.1,0.5-7.6c-3.3-0.2-6.6-0.5-9.8-0.7
				c-0.2,2.5-0.4,5.1-0.6,7.6c0.9,0.1,1.8,0.1,2.7,0.2c-0.1,0.9-0.1,1.9-0.2,2.8c-2.9-0.2-5.8-0.4-8.7-0.7c0.1-0.9,0.1-1.9,0.2-2.8
				C180.6,410.1,181.4,410.2,182.3,410.2z"/>
		</g>
		<g>
			<path class="st1" d="M206,412c0.4-5.6,0.8-11.2,1.1-16.9c-0.8-0.1-1.6-0.1-2.4-0.2c0.1-0.9,0.1-1.9,0.2-2.8
				c2.8,0.2,5.5,0.4,8.3,0.5c-0.1,0.9-0.1,1.9-0.2,2.8c-0.8-0.1-1.6-0.1-2.4-0.2c-0.4,5.6-0.7,11.2-1.1,16.9
				c0.8,0.1,1.6,0.1,2.5,0.2c-0.1,0.9-0.1,1.9-0.2,2.8c-2.8-0.2-5.6-0.4-8.3-0.6c0.1-0.9,0.1-1.9,0.2-2.8
				C204.4,411.8,205.2,411.9,206,412z"/>
		</g>
		<g>
			<path class="st1" d="M216.4,412.6c0.4-5.6,0.7-11.2,1.1-16.9c-0.9-0.1-1.9-0.1-2.8-0.2c0.1-0.9,0.1-1.9,0.2-2.8
				c3,0.2,6.1,0.4,9.1,0.6c-0.1,0.9-0.1,1.9-0.2,2.8c-1-0.1-1.9-0.1-2.9-0.2c-0.3,5.6-0.7,11.2-1,16.9c0.9,0.1,1.7,0.1,2.6,0.2
				c-0.1,0.9-0.1,1.9-0.2,2.8c-3-0.2-5.9-0.4-8.9-0.5c0.1-0.9,0.1-1.9,0.2-2.8C214.5,412.5,215.4,412.6,216.4,412.6z M220.5,403.8
				c2.6-2.5,5.1-4.9,7.7-7.4c-0.9,0-1.7-0.1-2.6-0.2c0.1-0.9,0.1-1.9,0.2-2.8c2.9,0.2,5.9,0.3,8.8,0.5c-0.1,0.9-0.1,1.9-0.2,2.8
				c-0.8,0-1.6-0.1-2.4-0.1c-2.5,2.5-4.9,4.9-7.4,7.4c2.2,3.2,4.4,6.3,6.7,9.5c0.8,0,1.6,0.1,2.4,0.1c-0.1,0.9-0.1,1.9-0.2,2.8
				c-3.1-0.2-6.2-0.3-9.2-0.5c0.1-0.9,0.1-1.9,0.2-2.8c0.8,0,1.6,0.1,2.5,0.1C224.8,410.1,222.6,406.9,220.5,403.8z"/>
		</g>
		<g>
			<path class="st1" d="M237.7,413.9c0.3-5.6,0.6-11.2,0.9-16.9c-1-0.1-1.9-0.1-2.9-0.2c0.1-0.9,0.1-1.9,0.2-2.8
				c6.2,0.3,12.5,0.7,18.7,0.9c-0.1,2.3-0.2,4.5-0.3,6.8c-0.9,0-1.9-0.1-2.8-0.1c0.1-1.3,0.1-2.6,0.2-4c-3.2-0.2-6.4-0.3-9.6-0.5
				c-0.1,2.2-0.2,4.5-0.3,6.7c2.8,0.1,5.6,0.3,8.4,0.4c0,0.9-0.1,1.9-0.1,2.8c-2.8-0.1-5.6-0.3-8.4-0.4c-0.1,2.5-0.3,4.9-0.4,7.4
				c3.2,0.2,6.5,0.3,9.7,0.5c0.1-1.4,0.1-2.7,0.2-4.1c0.9,0,1.9,0.1,2.8,0.1c-0.1,2.3-0.2,4.6-0.3,6.9c-6.3-0.3-12.6-0.6-18.9-1
				c0.1-0.9,0.1-1.9,0.2-2.8C235.7,413.8,236.7,413.8,237.7,413.9z"/>
		</g>
		<g>
			<path class="st1" d="M269.6,402.8c1.1,0,2,0.5,2.8,1.3c0.8,0.8,1.2,1.8,1.1,3c0,1.1-0.5,2-1.3,2.8c-0.8,0.8-1.8,1.1-2.9,1.1
				c-1.1,0-2.1-0.5-2.8-1.3c-0.8-0.8-1.1-1.8-1.1-2.9c0-1.1,0.5-2.1,1.3-2.8C267.5,403.1,268.5,402.8,269.6,402.8z"/>
		</g>
		<g>
			<path class="st1" d="M286.8,415.9c0.2-5.6,0.4-11.3,0.5-16.9c-0.9,0-1.9-0.1-2.8-0.1c0-0.9,0.1-1.9,0.1-2.8
				c3,0.1,6.1,0.2,9.1,0.3c0,0.9-0.1,1.9-0.1,2.8c-1,0-1.9-0.1-2.9-0.1c-0.2,5.6-0.3,11.3-0.5,16.9c0.9,0,1.7,0.1,2.6,0.1
				c0,0.9-0.1,1.9-0.1,2.8c-3-0.1-5.9-0.2-8.9-0.3c0-0.9,0.1-1.9,0.1-2.8C284.9,415.9,285.9,415.9,286.8,415.9z M290.6,407
				c2.5-2.5,5-5.1,7.5-7.6c-0.9,0-1.7,0-2.6-0.1c0-0.9,0.1-1.9,0.1-2.8c2.9,0.1,5.9,0.2,8.8,0.2c0,0.9,0,1.9-0.1,2.8
				c-0.8,0-1.6,0-2.4-0.1c-2.4,2.5-4.8,5.1-7.2,7.6c2.3,3.1,4.6,6.2,6.9,9.3c0.8,0,1.6,0,2.4,0.1c0,0.9,0,1.9-0.1,2.8
				c-3.1-0.1-6.2-0.2-9.2-0.2c0-0.9,0.1-1.9,0.1-2.8c0.8,0,1.6,0,2.5,0.1C295.1,413.2,292.9,410.1,290.6,407z"/>
		</g>
		<g>
			<path class="st1" d="M320.2,411.6c-2.7,0-5.5-0.1-8.2-0.2c-0.6,1.7-1.2,3.4-1.8,5.1c0.9,0,1.8,0,2.8,0.1c0,0.9,0,1.9-0.1,2.8
				c-3-0.1-6-0.1-9-0.2c0-0.9,0-1.9,0.1-2.8c0.9,0,1.8,0,2.8,0.1c2.2-5.7,4.4-11.4,6.6-17c-0.9,0-1.8,0-2.7-0.1c0-0.8,0-1.7,0.1-2.5
				c3.8,0.1,7.7,0.2,11.5,0.2c0,0.8,0,1.7,0,2.5c-0.9,0-1.9,0-2.8,0c2,5.8,4,11.5,6.1,17.3c0.8,0,1.7,0,2.5,0c0,0.9,0,1.9,0,2.8
				c-3,0-5.9-0.1-8.9-0.1c0-0.9,0-1.9,0-2.8c0.9,0,1.9,0,2.8,0C321.3,415.1,320.8,413.4,320.2,411.6z M319.4,409
				c-1-3.2-1.9-6.3-2.8-9.5c-0.1,0-0.2,0-0.3,0c-1.1,3.1-2.2,6.2-3.3,9.4C315.1,408.9,317.3,409,319.4,409z"/>
		</g>
		<g>
			<path class="st1" d="M335.2,417c0-2.5,0.1-5,0.1-7.4c-2.2-3.2-4.4-6.4-6.6-9.5c-0.9,0-1.8,0-2.8,0c0-0.9,0-1.9,0-2.8
				c3.1,0,6.2,0.1,9.3,0.1c0,0.9,0,1.9,0,2.8c-0.9,0-1.9,0-2.8,0c1.6,2.3,3.3,4.7,4.9,7c1.5-2.3,3.1-4.6,4.6-6.9c-0.9,0-1.9,0-2.8,0
				c0-0.9,0-1.9,0-2.8c3,0,6,0,9,0.1c0,0.9,0,1.9,0,2.8c-1,0-2,0-3,0c-2.1,3.1-4.2,6.3-6.3,9.4c0,2.5,0,5-0.1,7.4c1,0,2.1,0,3.1,0
				c0,0.9,0,1.9,0,2.8c-3.2,0-6.4-0.1-9.6-0.1c0-0.9,0-1.9,0-2.8C333.2,416.9,334.2,416.9,335.2,417z"/>
		</g>
		<g>
			<path class="st1" d="M361.8,412c-2.7,0-5.5,0-8.2,0c-0.6,1.7-1.2,3.4-1.8,5.1c0.9,0,1.8,0,2.8,0c0,0.9,0,1.9,0,2.8c-3,0-6,0-9,0
				c0-0.9,0-1.9,0-2.8c0.9,0,1.8,0,2.8,0c2.1-5.7,4.2-11.4,6.2-17.2c-0.9,0-1.8,0-2.7,0c0-0.8,0-1.7,0-2.5c3.8,0,7.7,0,11.5,0
				c0,0.8,0,1.7,0,2.5c-0.9,0-1.9,0-2.8,0c2.1,5.7,4.2,11.4,6.4,17.2c0.8,0,1.7,0,2.5,0c0,0.9,0,1.9,0,2.8c-3,0-5.9,0-8.9,0
				c0-0.9,0-1.9,0-2.8c0.9,0,1.9,0,2.8,0C363,415.4,362.4,413.7,361.8,412z M361,409.3c-1-3.1-2-6.3-3-9.4c-0.1,0-0.2,0-0.3,0
				c-1,3.1-2.1,6.3-3.1,9.4C356.7,409.3,358.8,409.3,361,409.3z"/>
		</g>
		<g>
			<path class="st1" d="M372.8,417c0-5.6-0.1-11.3-0.1-16.9c-0.9,0-1.9,0-2.8,0c0-0.9,0-1.9,0-2.8c3,0,6.1,0,9.1-0.1
				c0,0.9,0,1.9,0,2.8c-1,0-1.9,0-2.9,0c0,5.6,0.1,11.3,0.1,16.9c0.9,0,1.7,0,2.6,0c0,0.9,0,1.9,0,2.8c-3,0-5.9,0-8.9,0.1
				c0-0.9,0-1.9,0-2.8C370.9,417,371.9,417,372.8,417z M376.3,407.9c2.4-2.6,4.8-5.3,7.2-7.9c-0.9,0-1.7,0-2.6,0c0-0.9,0-1.9,0-2.8
				c2.9,0,5.9-0.1,8.8-0.1c0,0.9,0,1.9,0,2.8c-0.8,0-1.6,0-2.4,0c-2.3,2.6-4.6,5.3-6.9,7.9c2.4,3,4.8,6,7.3,9c0.8,0,1.6,0,2.4,0
				c0,0.9,0,1.9,0,2.8c-3.1,0-6.2,0.1-9.3,0.1c0-0.9,0-1.9,0-2.8c0.8,0,1.6,0,2.5,0C381,413.9,378.6,410.9,376.3,407.9z"/>
		</g>
		<g>
			<path class="st1" d="M404.4,404.1c1.1,0,2.1,0.3,2.9,1.1c0.8,0.8,1.3,1.7,1.3,2.9c0,1.1-0.4,2.1-1.1,2.9
				c-0.8,0.8-1.7,1.2-2.9,1.3c-1.1,0-2.1-0.4-2.9-1.1c-0.8-0.8-1.2-1.7-1.3-2.8c0-1.1,0.4-2.1,1.2-2.9
				C402.3,404.5,403.2,404.1,404.4,404.1z"/>
		</g>
		<g>
			<path class="st1" d="M439.5,409.3c1,0.5,2,1,3,1.5c-0.6,2.5-1.8,4.5-3.8,6c-2,1.4-4.3,2.2-6.9,2.3c-3.4,0.1-6.3-0.9-8.4-3.1
				c-2.1-2.2-3.3-4.9-3.3-8.1c-0.1-3.6,0.9-6.4,2.9-8.6c2-2.2,4.7-3.3,8-3.4c2.9-0.1,5.5,0.6,7.5,2.2c0-0.7,0-1.4-0.1-2.1
				c1,0,1.9-0.1,2.9-0.1c0.1,2.4,0.2,4.8,0.3,7.2c-1,0-2,0.1-2.9,0.1c-0.7-1.4-1.7-2.5-3.1-3.3c-1.4-0.8-2.8-1.1-4.3-1.1
				c-2.3,0.1-4.1,0.9-5.5,2.6c-1.4,1.7-2.1,3.7-2,6.2c0.1,2.5,0.9,4.6,2.5,6.1c1.6,1.6,3.5,2.3,5.6,2.2c1.8-0.1,3.3-0.7,4.7-1.8
				C438.1,413,439,411.4,439.5,409.3z"/>
		</g>
		<g>
			<path class="st1" d="M459.1,409.7c-2.7,0.1-5.4,0.2-8.2,0.3c-0.5,1.7-1,3.4-1.5,5.2c0.9,0,1.8-0.1,2.8-0.1c0,0.9,0.1,1.9,0.1,2.8
				c-3,0.1-6,0.2-9,0.4c0-0.9-0.1-1.9-0.1-2.8c0.9,0,1.8-0.1,2.8-0.1c1.9-5.8,3.7-11.6,5.5-17.4c-0.9,0-1.8,0.1-2.7,0.1
				c0-0.8-0.1-1.7-0.1-2.5c3.8-0.2,7.7-0.3,11.5-0.5c0,0.8,0.1,1.7,0.1,2.5c-0.9,0-1.9,0.1-2.8,0.1c2.4,5.6,4.7,11.2,7.1,16.9
				c0.8,0,1.7-0.1,2.5-0.1c0,0.9,0.1,1.9,0.1,2.8c-3,0.1-5.9,0.3-8.9,0.4c0-0.9-0.1-1.9-0.1-2.8c0.9,0,1.9-0.1,2.8-0.1
				C460.4,413.1,459.8,411.4,459.1,409.7z M458.2,407.1c-1.1-3.1-2.3-6.2-3.4-9.3c-0.1,0-0.2,0-0.3,0c-0.9,3.2-1.8,6.4-2.7,9.5
				C453.9,407.3,456,407.2,458.2,407.1z"/>
		</g>
		<g>
			<path class="st1" d="M470.3,414.3c-0.3-5.6-0.6-11.2-0.8-16.9c-1.1,0.1-2.2,0.1-3.2,0.2c0-0.9-0.1-1.9-0.1-2.8
				c2.6-0.1,5.1-0.2,7.7-0.4c3.6,5.7,7.2,11.3,10.9,17c-0.3-4.9-0.5-9.8-0.8-14.7c-1.1,0.1-2.1,0.1-3.2,0.2
				c-0.1-0.9-0.1-1.9-0.2-2.8c3.1-0.2,6.2-0.3,9.2-0.5c0.1,0.9,0.1,1.9,0.2,2.8c-1.1,0.1-2.2,0.1-3.3,0.2c0.4,6.6,0.8,13.3,1.1,19.9
				c-1.2,0.1-2.4,0.1-3.5,0.2c-4-6.2-8-12.4-11.9-18.6c0.3,5.4,0.5,10.8,0.8,16.2c1.1-0.1,2.2-0.1,3.3-0.2c0,0.9,0.1,1.9,0.1,2.8
				c-3.1,0.2-6.2,0.3-9.3,0.5c0-0.9-0.1-1.9-0.1-2.8C468.1,414.4,469.2,414.4,470.3,414.3z"/>
		</g>
		<g>
			<path class="st1" d="M492.1,404.6c-0.2-3.3,0.7-6.1,2.7-8.4c2-2.3,4.7-3.6,8.2-3.8c3.5-0.2,6.4,0.7,8.7,2.7
				c2.3,2.1,3.6,4.7,3.8,8c0.2,3.4-0.7,6.2-2.8,8.6c-2.1,2.3-4.9,3.6-8.3,3.9c-2.2,0.1-4.3-0.3-6.2-1.2c-1.9-0.9-3.4-2.3-4.4-4.1
				C492.8,408.5,492.2,406.6,492.1,404.6z M495.8,404.4c0.2,2.5,1,4.5,2.6,6.1c1.6,1.6,3.5,2.3,5.9,2.1c2.3-0.2,4.2-1.1,5.6-2.9
				c1.4-1.8,2-3.9,1.9-6.3c-0.2-2.4-1.1-4.4-2.7-5.9c-1.6-1.6-3.6-2.3-5.9-2.1c-2.3,0.1-4.1,1.1-5.5,2.8
				C496.3,399.9,495.7,402,495.8,404.4z"/>
		</g>
		<g>
			<path class="st1" d="M521.6,411.2c-0.4-5.6-0.8-11.2-1.2-16.9c-1,0.1-1.9,0.1-2.9,0.2c-0.1-0.9-0.1-1.9-0.2-2.8
				c6.2-0.4,12.5-0.9,18.7-1.4c0.2,2.3,0.4,4.5,0.5,6.8c-0.9,0.1-1.9,0.1-2.8,0.2c-0.1-1.3-0.2-2.6-0.3-4c-3.2,0.2-6.4,0.5-9.6,0.7
				c0.2,2.2,0.3,4.5,0.5,6.7c2.8-0.2,5.6-0.4,8.4-0.6c0.1,0.9,0.1,1.9,0.2,2.8c-2.8,0.2-5.6,0.4-8.4,0.6c0.2,2.5,0.4,4.9,0.5,7.4
				c3.2-0.2,6.5-0.5,9.7-0.7c-0.1-1.4-0.2-2.7-0.3-4.1c0.9-0.1,1.9-0.1,2.8-0.2c0.2,2.3,0.4,4.6,0.5,6.9c-6.3,0.5-12.6,1-18.9,1.4
				c-0.1-0.9-0.1-1.9-0.2-2.8C519.6,411.4,520.6,411.3,521.6,411.2z"/>
		</g>
	</g>
	<g>
		<g>
			<path class="st3" d="M100.1,371.1v-16.9h-2.9v-2.8h18.7v6.8h-2.8v-4h-9.6v6.7h8.4v2.8h-8.4v7.4h9.6V367h2.8v6.9H97.2v-2.8H100.1z
				"/>
		</g>
		<g>
			<path class="st3" d="M118.2,373.9v-8.2h2.8v2c1.3,2.5,3.1,3.7,5.3,3.7c1.1,0,2.1-0.3,2.8-1c0.8-0.7,1.1-1.6,1.1-2.7
				c0-1.1-0.3-1.8-0.9-2.3s-1.8-0.9-3.5-1.4c-2-0.5-3.5-1.1-4.5-1.5s-1.7-1.2-2.3-2.1c-0.6-0.9-0.9-1.9-0.9-3.2
				c0-1.9,0.6-3.4,1.9-4.5c1.3-1.1,2.8-1.7,4.7-1.7c1.8,0,3.5,0.6,5,1.7v-1.5h2.8v6.8h-2.8v-1.6c-1.2-1.7-2.7-2.6-4.8-2.6
				c-1.2,0-2.2,0.3-2.8,0.9c-0.7,0.6-1,1.2-1,2c0,0.6,0.2,1.1,0.5,1.6c0.3,0.5,0.8,0.8,1.3,1c0.5,0.2,1.5,0.5,3.1,0.9
				c2,0.5,3.4,1,4.3,1.4c0.9,0.4,1.7,1.2,2.3,2.2c0.6,1,1,2.3,1,3.6c0,1.9-0.7,3.5-2,4.8c-1.4,1.3-3,1.9-5,1.9
				c-2.1,0-3.9-0.7-5.5-2.2v1.9H118.2z"/>
		</g>
		<g>
			<path class="st3" d="M142.4,371.1v-16.9h-4.6v5.8H135v-8.6h18.3v8.6h-2.8v-5.8h-4.6v16.9h2.9v2.8h-9.2v-2.8H142.4z"/>
		</g>
		<g>
			<path class="st3" d="M153.8,373.9v-4h4v4H153.8z"/>
		</g>
	</g>
	<g>
		<g>
			<path class="st3" d="M571,371.2v-17.1h-3.1v-2.7h6.2v19.8h2.9v2.7h-9.1v-2.7H571z"/>
		</g>
		<g>
			<path class="st3" d="M582.8,367.3h2.7c0.2,1.3,0.6,2.3,1.4,3.1c0.7,0.8,1.6,1.2,2.7,1.2c1.4,0,2.6-0.8,3.4-2.3
				c0.8-1.5,1.2-3.5,1.2-6.1c-1.5,1.7-3.3,2.5-5.3,2.5c-1.8,0-3.3-0.6-4.5-1.9c-1.2-1.3-1.8-3-1.8-5.1c0-2.1,0.6-3.9,1.8-5.4
				c1.2-1.5,2.9-2.3,5-2.3c2.3,0,4.2,1,5.6,2.9c1.4,1.9,2.1,4.8,2.1,8.6c0,3.6-0.7,6.5-2,8.6c-1.4,2.1-3.3,3.2-5.9,3.2
				c-2,0-3.6-0.7-4.7-2C583.4,371,582.9,369.3,582.8,367.3z M594,359.8c-0.5-4.1-2-6.1-4.5-6.1c-1.2,0-2.2,0.5-3,1.4
				c-0.7,0.9-1.1,2.1-1.1,3.4c0,1.2,0.3,2.2,1,3.1c0.6,0.8,1.6,1.2,2.8,1.2C590.9,362.8,592.4,361.8,594,359.8z"/>
		</g>
		<g>
			<path class="st3" d="M604.2,362.1c-2.2-1.3-3.3-3-3.3-5.2c0-1.9,0.7-3.4,2.1-4.4c1.4-1,3-1.5,4.9-1.5c2.3,0,4.1,0.5,5.4,1.6
				c1.3,1.1,2,2.5,2,4.3c0,2.2-1.1,3.9-3.3,5.2c2.7,1,4,2.9,4,5.6c0,2-0.7,3.6-2.1,4.8c-1.4,1.2-3.3,1.8-5.6,1.8
				c-2.6,0-4.6-0.6-6-1.8c-1.4-1.2-2-2.8-2-4.8C600.2,365.1,601.5,363.2,604.2,362.1z M603.5,367.6c0,1.2,0.4,2.2,1.2,2.9
				c0.8,0.8,1.9,1.1,3.4,1.1c1.3,0,2.5-0.4,3.3-1.1c0.9-0.7,1.3-1.7,1.3-3c0-1.2-0.4-2.2-1.2-2.9s-2-1.1-3.5-1.1
				c-1.3,0-2.4,0.4-3.2,1.1C603.9,365.3,603.5,366.3,603.5,367.6z M603.9,357.2c0,1.2,0.4,2.1,1.1,2.7c0.8,0.6,1.8,0.9,3.1,0.9
				c1.1,0,2.1-0.3,2.9-0.9c0.8-0.6,1.2-1.5,1.2-2.7c0-2.4-1.4-3.5-4.2-3.5c-1.2,0-2.2,0.3-2.9,0.9
				C604.3,355.2,603.9,356.1,603.9,357.2z"/>
		</g>
		<g>
			<path class="st3" d="M618.2,366.7h2.9c0.2,1.5,0.7,2.7,1.5,3.6c0.8,0.9,1.9,1.3,3.2,1.3c1.3,0,2.4-0.5,3.3-1.4s1.2-2.1,1.2-3.6
				c0-1.5-0.4-2.7-1.2-3.5c-0.8-0.8-1.8-1.2-3-1.2c-1.8,0-3.3,0.9-4.5,2.7c-0.7-0.7-1.5-1.2-2.3-1.6l0.9-11.6h12v6h-2.8v-3.1h-6.9
				l-0.5,6.6c1.4-1.1,2.9-1.7,4.6-1.7c2.1,0,3.8,0.7,5.1,2.1c1.2,1.4,1.9,3.2,1.9,5.3c0,2.2-0.7,4-2,5.5s-3.3,2.1-5.7,2.1
				c-2.3,0-4.1-0.6-5.4-1.9C619.1,371.1,618.4,369.2,618.2,366.7z"/>
		</g>
	</g>
	<g>
		<path class="st1" d="M192.6,502.9l-8.2-10.7l-9.5,4l-6.4-8.3l48.2-17.6l5.5,7.2l-29.5,42l-6.4-8.4L192.6,502.9z M192.3,488.9
			l5.6,7.3l11.1-14.2L192.3,488.9z"/>
		<path class="st1" d="M202.6,529.2l31.7-37.3l9.9,8.4c4.4,3.7,6.7,8,6.9,13c0.2,5-1.7,9.9-5.7,14.7l-5.1,6
			c-4.2,4.9-8.7,7.7-13.7,8.2c-5,0.6-9.7-1-14.3-4.9L202.6,529.2z M236.5,504.6l-21,24.8l2.3,1.9c2.5,2.1,4.8,3,7,2.5
			c2.1-0.5,4.6-2.3,7.4-5.5l5.5-6.5c3-3.5,4.5-6.3,4.7-8.5c0.2-2.2-0.9-4.3-3.1-6.4L236.5,504.6z"/>
		<path class="st1" d="M260.8,554.6l24-27.4l9.7,5.2l-35.6,36.4l-9.1-4.9l10.8-49.8l9.7,5.2L260.8,554.6z"/>
		<path class="st1" d="M314.4,567.2l-14.7-4.4l-3.7,12.4l17.4,5.2l-2.4,7.9l-26.9-8.1l14.1-46.9l26.8,8.1l-2.4,7.9l-17.4-5.2
			l-3.3,11.1l14.7,4.4L314.4,567.2z"/>
		<path class="st1" d="M359.6,594.2l-9.8-0.9l-11.6-33.2l-2.8,32l-9.8-0.9l4.2-48.8l9.8,0.9l11.7,33.3l2.8-32l9.8,0.9L359.6,594.2z"
			/>
		<path class="st1" d="M403.2,549.3l-12,1.5l5.1,40.4l-9.8,1.2l-5.1-40.4l-11.8,1.5l-1-8.2l33.7-4.2L403.2,549.3z"/>
		<path class="st1" d="M436.8,529.6l11.1,32c1.6,4.8,1.6,9-0.2,12.4c-1.7,3.5-5,6-9.9,7.7c-5,1.7-9.2,1.7-12.7,0
			c-3.5-1.7-6.1-5-7.8-9.9l-11-31.8l9.4-3.3l11,31.8c0.9,2.6,2,4.4,3.2,5.2c1.2,0.8,3,0.9,5.2,0.1c2.2-0.8,3.6-1.9,4-3.2
			c0.4-1.4,0.2-3.4-0.6-5.9l-11.1-32L436.8,529.6z"/>
		<path class="st1" d="M471.3,545.7l-4.2,2.5l9.2,15.3l-8.5,5.1l-25.3-41.9l13.5-8.1c4.2-2.6,8.2-3.4,11.8-2.6
			c3.6,0.8,6.7,3.2,9.1,7.3c3.4,5.6,3.7,10.7,1,15.4l17.7,12.7l0.2,0.4l-9.1,5.5L471.3,545.7z M462.8,541.2l4.8-2.9
			c1.7-1,2.6-2.3,2.8-4c0.2-1.6-0.3-3.4-1.4-5.3c-2.5-4.2-5.4-5.3-8.7-3.3l-5,3L462.8,541.2z"/>
		<path class="st1" d="M511.4,510.3L500,520.7l8.7,9.6l13.5-12.2l5.5,6.1L506.9,543L474,506.7l20.8-18.8l5.5,6.1l-13.5,12.2l7.8,8.6
			l11.4-10.3L511.4,510.3z"/>
		<path class="st1" d="M539.4,489.3c-1.6-1.2-3.1-1.7-4.5-1.5c-1.4,0.2-3.4,1.1-5.9,2.5c-4.4,2.8-8.3,4.3-11.6,4.6
			c-3.3,0.2-6.3-0.7-9-2.7c-3.3-2.5-5.1-5.6-5.3-9.5c-0.2-3.8,1-7.6,3.7-11.2c1.8-2.4,3.9-4.2,6.3-5.3c2.4-1.1,4.9-1.5,7.5-1.1
			c2.6,0.4,5.1,1.4,7.4,3.2l-5.9,7.9c-1.8-1.4-3.5-2-5.1-2c-1.5,0.1-2.9,0.8-4,2.3c-1,1.4-1.4,2.8-1.2,4.1c0.2,1.4,1,2.6,2.4,3.6
			c1.1,0.8,2.4,1.1,3.9,0.9c1.5-0.2,3.6-1.1,6.1-2.5c4.2-2.8,8-4.3,11.3-4.5c3.3-0.2,6.5,0.8,9.6,3.2c3.4,2.6,5.3,5.6,5.6,9.2
			c0.3,3.6-1,7.3-3.8,11c-1.9,2.5-4.1,4.4-6.7,5.7c-2.6,1.3-5.3,1.8-8.1,1.5c-2.8-0.3-5.5-1.4-8.2-3.4l5.9-7.9
			c2.3,1.7,4.2,2.5,5.9,2.4c1.7-0.1,3.3-1.2,4.8-3.2C542.8,493.9,542.4,491.5,539.4,489.3z"/>
	</g>
	<g>
		<g>
			<path class="st1" d="M165.4,336H89.6c-0.4,0-0.7-0.3-0.7-0.7c0-0.4,0.3-0.7,0.7-0.7h75.8c0.4,0,0.7,0.3,0.7,0.7
				C166.1,335.7,165.8,336,165.4,336z"/>
		</g>
		<g>
			<path class="st1" d="M165.4,390.8H89.6c-0.4,0-0.7-0.3-0.7-0.7s0.3-0.7,0.7-0.7h75.8c0.4,0,0.7,0.3,0.7,0.7
				S165.8,390.8,165.4,390.8z"/>
		</g>
	</g>
	<g>
		<g>
			<path class="st1" d="M638.6,336h-75.8c-0.4,0-0.7-0.3-0.7-0.7c0-0.4,0.3-0.7,0.7-0.7h75.8c0.4,0,0.7,0.3,0.7,0.7
				C639.4,335.7,639,336,638.6,336z"/>
		</g>
		<g>
			<path class="st1" d="M638.6,390.8h-75.8c-0.4,0-0.7-0.3-0.7-0.7s0.3-0.7,0.7-0.7h75.8c0.4,0,0.7,0.3,0.7,0.7
				S639,390.8,638.6,390.8z"/>
		</g>
	</g>
	<g>
		<g>
			<g>
				<path class="st3" d="M329.7,441.7L329.7,441.7L329.7,441.7 M328.7,442.7l19.2,19.2l-5.7,5.7L323,448.4L328.7,442.7 M328.7,437
					c-1,0-2,0.4-2.7,1.1l-7.6,7.6c-1.5,1.5-1.5,3.9,0,5.4l21.1,21.1c0.7,0.7,1.7,1.1,2.7,1.1s2-0.4,2.7-1.1l7.6-7.6
					c1.5-1.5,1.5-3.9,0-5.4l-21.1-21.1C330.7,437.3,329.7,437,328.7,437L328.7,437z"/>
			</g>
		</g>
		<g>
			<g>
				<path class="st3" d="M394.4,517.1c-0.7,0-1.3-0.3-1.8-0.8l-46.1-46.1c-1-1-1-2.6,0-3.7c1-1,2.7-1,3.7,0l46.1,46.1
					c1,1,1,2.6,0,3.7C395.7,516.9,395,517.1,394.4,517.1z"/>
			</g>
		</g>
		<g>
			<g>
				<path class="st3" d="M397.7,441.7L397.7,441.7L397.7,441.7 M396.8,442.7l5.7,5.7l-19.2,19.2l-5.7-5.7L396.8,442.7 M396.8,437
					c-1,0-2,0.4-2.7,1.1l-21.1,21.1c-1.5,1.5-1.5,3.9,0,5.4l7.6,7.6c0.7,0.7,1.7,1.1,2.7,1.1s2-0.4,2.7-1.1l21.1-21.1
					c1.5-1.5,1.5-3.9,0-5.4l-7.6-7.6C398.7,437.3,397.7,437,396.8,437L396.8,437z"/>
			</g>
		</g>
		<g>
			<g>
				<path class="st3" d="M331.1,517.1c-0.7,0-1.3-0.3-1.8-0.8c-1-1-1-2.6,0-3.7l46.1-46.1c1-1,2.6-1,3.7,0c1,1,1,2.6,0,3.7
					l-46.1,46.1C332.4,516.9,331.8,517.1,331.1,517.1z"/>
			</g>
		</g>
	</g>
</g>
</svg>
