<?xml version="1.0" encoding="utf-8"?>
<!-- Generator: Adobe Illustrator 21.1.0, SVG Export Plug-In . SVG Version: 6.00 Build 0)  -->
<svg version="1.1" id="Layer_1" xmlns="http://www.w3.org/2000/svg" xmlns:xlink="http://www.w3.org/1999/xlink" x="0px" y="0px"
	 viewBox="0 0 92 92" style="enable-background:new 0 0 92 92;" xml:space="preserve">
<style type="text/css">
	.st0{fill:#FFFFFF;}
	.st1{fill:#687561;}
	.st2{fill:#8B988E;}
	.st3{fill:#E17645;}
</style>
<g>
	<circle class="st0" cx="46" cy="46" r="43.8"/>
	<path class="st1" d="M46,90c-5.9,0-11.7-1.2-17.1-3.5c-5.2-2.2-9.9-5.4-14-9.4c-4-4-7.2-8.7-9.4-14C3.2,57.7,2,51.9,2,46
		c0-5.9,1.2-11.7,3.5-17.1c2.2-5.2,5.4-9.9,9.4-14c4-4,8.7-7.2,14-9.4C34.3,3.2,40.1,2,46,2s11.7,1.2,17.1,3.5
		c5.2,2.2,9.9,5.4,14,9.4c4,4,7.2,8.7,9.4,14C88.8,34.3,90,40.1,90,46c0,5.9-1.2,11.7-3.5,17.1c-2.2,5.2-5.4,9.9-9.4,14
		c-4,4-8.7,7.2-14,9.4C57.7,88.8,51.9,90,46,90z M46,2.3c-5.9,0-11.6,1.2-17,3.4c-5.2,2.2-9.9,5.3-13.9,9.4c-4,4-7.2,8.7-9.4,13.9
		c-2.3,5.4-3.4,11.1-3.4,17s1.2,11.6,3.4,17c2.2,5.2,5.3,9.9,9.4,13.9c4,4,8.7,7.2,13.9,9.4c5.4,2.3,11.1,3.4,17,3.4
		s11.6-1.2,17-3.4c5.2-2.2,9.9-5.3,13.9-9.4c4-4,7.2-8.7,9.4-13.9c2.3-5.4,3.4-11.1,3.4-17s-1.2-11.6-3.4-17
		c-2.2-5.2-5.3-9.9-9.4-13.9c-4-4-8.7-7.2-13.9-9.4C57.6,3.5,51.9,2.3,46,2.3z"/>
</g>
<g>
	<circle class="st0" cx="46" cy="46" r="38.4"/>
	<path class="st1" d="M46,85.8c-5.4,0-10.6-1.1-15.5-3.1c-4.7-2-9-4.9-12.7-8.5c-3.7-3.7-6.5-7.9-8.5-12.7C7.2,56.6,6.2,51.4,6.2,46
		c0-5.4,1.1-10.6,3.1-15.5c2-4.7,4.9-9,8.5-12.7c3.7-3.7,7.9-6.5,12.7-8.5C35.4,7.2,40.6,6.1,46,6.1s10.6,1.1,15.5,3.1
		c4.7,2,9,4.9,12.7,8.5c3.7,3.7,6.5,7.9,8.5,12.7c2.1,4.9,3.1,10.1,3.1,15.5c0,5.4-1.1,10.6-3.1,15.5c-2,4.7-4.9,9-8.5,12.7
		c-3.7,3.7-7.9,6.5-12.7,8.5C56.6,84.8,51.4,85.8,46,85.8z M46,9.1c-9.9,0-19.1,3.8-26.1,10.8c-7,7-10.8,16.2-10.8,26.1
		c0,9.9,3.8,19.1,10.8,26.1c7,7,16.2,10.8,26.1,10.8s19.1-3.8,26.1-10.8c7-7,10.8-16.2,10.8-26.1c0-9.9-3.8-19.1-10.8-26.1
		C65.1,12.9,55.9,9.1,46,9.1z"/>
</g>
<g>
	<g>
		<polygon class="st2" points="62.1,34.2 61.3,33.1 60.1,33.1 59,33.1 58.3,33.1 59.7,33.7 60.6,34.3 61,34.1 61.4,34.7 62.2,34.7 
			63.4,36.4 64.4,37.3 64.4,37.3 63.6,34.2 		"/>
	</g>
	<g>
		<path class="st2" d="M54,28.5c0,0-1.7,0.7-2,0.8c-0.3,0.1-0.8-0.8-0.8-0.8l-0.6,0.8l-0.7-0.8l-0.4,0.9L49,30h-0.8l-2.3,3.2h-1.2
			h-0.6h-0.9h-0.5l-0.6,0.5l-2.3-0.5l-2.3,4.6l1.4-1.4l1.4,0.9l0.9-1.5l0.8,1l1.1-1.6l0.6,1.3l0.9-1.9l0.9,1.1l0.5-2.6l1.7-1
			l0.7,0.8l1.9-1.3l0.7,1.6l1.8-1.6l1.7,1.8l1.3-0.9l0.9,1v-1l1.5,0.6l-2.4-2.6L54,28.5z"/>
	</g>
	<g>
		<path class="st1" d="M67.5,46.1h0.8l0,0h-0.2C68,46.1,67.8,46.1,67.5,46.1z"/>
	</g>
	<g>
		<path class="st1" d="M68.2,46.1h0.2l0,0C68.3,46.1,68.2,46.1,68.2,46.1z"/>
	</g>
	<g>
		<path class="st1" d="M67.5,43.4l-0.9-1.8l-2.1-3.9l-0.1-0.4l-1-1l-1.2-1.7h-0.8L61,34.1l-0.4,0.3l-0.8-0.6l-1.4-0.6h0l0,0
			l-1.5-0.6v1l-0.9-1l-1.3,0.9l-1.7-1.8l-1.8,1.6l-0.7-1.6l-1.9,1.3l-0.7-0.8l-1.7,1l-0.5,2.6l-0.9-1.1l-0.9,1.9L43,35.2l-1.1,1.6
			l-0.8-1l-0.9,1.5l-1.4-0.9l-1.4,1.4l0,0v0l-0.2-0.4l-0.3,0.5L35.7,37h-0.8l-0.8,1h-0.6l-0.8,0.5h-0.6h-0.8h-0.4l-2.3,3.3l-0.9,1.3
			h-0.5h-1l-0.8,0.5l-0.7,1.2l-0.4,0.5l-0.7,0.8c0,0,0.1,0,0.1,0c0.2,0,0.4,0,0.6,0c14.3,1.1,28.8,1.1,43.1,0c0.2,0,0.4,0,0.6,0
			c0,0,0.1,0,0.1,0L67.5,43.4z"/>
	</g>
</g>
<g>
	<path class="st1" d="M32.2,26.8l1.8-1.3l0.6,0.9l-2.9,2l-3.6-5.2l1-0.7L32.2,26.8z"/>
	<path class="st1" d="M38.2,22c0.3,0.8,0.4,1.5,0.2,2c-0.2,0.6-0.6,1-1.3,1.3c-0.6,0.3-1.3,0.3-1.8,0c-0.6-0.3-1-0.8-1.3-1.5l-0.4-1
		c-0.3-0.8-0.4-1.5-0.2-2.1c0.2-0.6,0.6-1,1.2-1.3c0.6-0.3,1.2-0.3,1.8,0c0.6,0.3,1,0.8,1.4,1.6L38.2,22z M36.6,21.6
		c-0.2-0.5-0.5-0.9-0.7-1.1c-0.3-0.2-0.5-0.2-0.9-0.1c-0.3,0.1-0.5,0.4-0.5,0.7c0,0.3,0,0.7,0.2,1.2l0.4,1c0.2,0.5,0.5,0.8,0.7,1
		c0.3,0.2,0.5,0.2,0.9,0.1c0.3-0.1,0.5-0.3,0.5-0.6c0-0.3,0-0.7-0.2-1.2L36.6,21.6z"/>
	<path class="st1" d="M40.8,17.6l1.8,4.3l0.5-4.7l1.6-0.2l0.9,6.2l-1.3,0.2l-0.2-1.7l-0.2-2.6l-0.6,4.5l-0.9,0.1l-1.8-4.1l0.5,2.6
		l0.2,1.7L40,24.1l-0.9-6.2L40.8,17.6z"/>
	<path class="st1" d="M51.4,21.4c-0.1,0.8-0.4,1.5-0.8,1.9c-0.5,0.4-1,0.6-1.7,0.5c-0.7-0.1-1.2-0.4-1.6-0.9c-0.3-0.5-0.5-1.2-0.4-2
		l0.1-1.1c0.1-0.9,0.4-1.5,0.8-1.9c0.5-0.4,1-0.6,1.7-0.5c0.7,0.1,1.2,0.4,1.6,0.9c0.3,0.5,0.5,1.2,0.4,2.1L51.4,21.4z M50.2,20.2
		c0.1-0.6,0-1-0.1-1.3c-0.1-0.3-0.4-0.5-0.7-0.5c-0.3,0-0.6,0.1-0.8,0.3c-0.2,0.2-0.3,0.6-0.4,1.2L48.1,21c-0.1,0.5,0,1,0.1,1.2
		c0.1,0.3,0.4,0.4,0.7,0.5c0.3,0,0.6-0.1,0.8-0.3c0.2-0.2,0.3-0.6,0.4-1.1L50.2,20.2z"/>
	<path class="st1" d="M56.1,25.7l-1.2-0.4l-0.3-4.5l-1.5,3.9l-1.2-0.4l2.2-5.9l1.2,0.4l0.3,4.5l1.5-3.9l1.2,0.4L56.1,25.7z"/>
	<path class="st1" d="M57,26.2l3.5-5.2l1.4,0.9c0.6,0.4,1,0.9,1.1,1.6c0.1,0.6-0.1,1.3-0.5,2l-0.6,0.8c-0.5,0.7-1,1.1-1.6,1.3
		c-0.6,0.1-1.3,0-1.9-0.4L57,26.2z M60.9,22.6L58.6,26l0.3,0.2c0.4,0.2,0.7,0.3,0.9,0.2c0.3-0.1,0.6-0.4,0.9-0.8l0.6-0.9
		c0.3-0.5,0.5-0.9,0.5-1.2c0-0.3-0.2-0.5-0.5-0.8L60.9,22.6z"/>
</g>
<g>
	<g>
		<path class="st1" d="M23.3,52c0.1-0.7,0.1-1.4,0.2-2.1c-0.1,0-0.2,0-0.3,0c0-0.1,0-0.2,0-0.4c0.4,0,0.7,0.1,1.1,0.1
			c0,0.1,0,0.2,0,0.4c-0.1,0-0.2,0-0.3,0c0,0.3,0,0.5-0.1,0.8c0.4,0,0.8,0.1,1.2,0.1c0-0.3,0-0.5,0.1-0.8c-0.1,0-0.2,0-0.3,0
			c0-0.1,0-0.2,0-0.4c0.4,0,0.7,0.1,1.1,0.1c0,0.1,0,0.2,0,0.4c-0.1,0-0.2,0-0.3,0c0,0.7-0.1,1.4-0.1,2.1c0.1,0,0.2,0,0.3,0
			c0,0.1,0,0.2,0,0.4c-0.4,0-0.7-0.1-1.1-0.1c0-0.1,0-0.2,0-0.4c0.1,0,0.2,0,0.3,0c0-0.3,0-0.6,0.1-1c-0.4,0-0.8-0.1-1.2-0.1
			c0,0.3,0,0.6-0.1,1c0.1,0,0.2,0,0.3,0c0,0.1,0,0.2,0,0.4c-0.4,0-0.7-0.1-1.1-0.1c0-0.1,0-0.2,0-0.4C23.1,52,23.2,52,23.3,52z"/>
	</g>
	<g>
		<path class="st1" d="M26.3,52.2c0-0.7,0.1-1.4,0.1-2.1c-0.1,0-0.2,0-0.3,0c0-0.1,0-0.2,0-0.4c0.3,0,0.7,0,1,0.1c0,0.1,0,0.2,0,0.4
			c-0.1,0-0.2,0-0.3,0c0,0.7-0.1,1.4-0.1,2.1c0.1,0,0.2,0,0.3,0c0,0.1,0,0.2,0,0.4c-0.3,0-0.7,0-1-0.1c0-0.1,0-0.2,0-0.4
			C26.1,52.2,26.2,52.2,26.3,52.2z"/>
	</g>
	<g>
		<path class="st1" d="M27.6,52.3c0-0.7,0.1-1.4,0.1-2.1c-0.1,0-0.2,0-0.4,0c0-0.1,0-0.2,0-0.4c0.4,0,0.8,0,1.1,0.1
			c0,0.1,0,0.2,0,0.4c-0.1,0-0.2,0-0.4,0c0,0.7-0.1,1.4-0.1,2.1c0.1,0,0.2,0,0.3,0c0,0.1,0,0.2,0,0.4c-0.4,0-0.7,0-1.1-0.1
			c0-0.1,0-0.2,0-0.4C27.4,52.3,27.5,52.3,27.6,52.3z M28.1,51.2c0.3-0.3,0.6-0.6,1-0.9c-0.1,0-0.2,0-0.3,0c0-0.1,0-0.2,0-0.4
			c0.4,0,0.7,0,1.1,0.1c0,0.1,0,0.2,0,0.4c-0.1,0-0.2,0-0.3,0c-0.3,0.3-0.6,0.6-0.9,0.9c0.3,0.4,0.6,0.8,0.8,1.2c0.1,0,0.2,0,0.3,0
			c0,0.1,0,0.2,0,0.4c-0.4,0-0.8,0-1.2-0.1c0-0.1,0-0.2,0-0.4c0.1,0,0.2,0,0.3,0C28.7,52,28.4,51.6,28.1,51.2z"/>
	</g>
	<g>
		<path class="st1" d="M30.3,52.4c0-0.7,0.1-1.4,0.1-2.1c-0.1,0-0.2,0-0.4,0c0-0.1,0-0.2,0-0.4c0.8,0,1.6,0.1,2.4,0.1
			c0,0.3,0,0.6,0,0.9c-0.1,0-0.2,0-0.4,0c0-0.2,0-0.3,0-0.5c-0.4,0-0.8,0-1.2-0.1c0,0.3,0,0.6,0,0.8c0.4,0,0.7,0,1.1,0.1
			c0,0.1,0,0.2,0,0.4c-0.4,0-0.7,0-1.1-0.1c0,0.3,0,0.6,0,0.9c0.4,0,0.8,0,1.2,0.1c0-0.2,0-0.3,0-0.5c0.1,0,0.2,0,0.4,0
			c0,0.3,0,0.6,0,0.9c-0.8,0-1.6-0.1-2.4-0.1c0-0.1,0-0.2,0-0.4C30,52.4,30.2,52.4,30.3,52.4z"/>
	</g>
	<g>
		<path class="st1" d="M34.3,51c0.1,0,0.3,0.1,0.4,0.2c0.1,0.1,0.1,0.2,0.1,0.4c0,0.1-0.1,0.3-0.2,0.4c-0.1,0.1-0.2,0.1-0.4,0.1
			c-0.1,0-0.3-0.1-0.4-0.2c-0.1-0.1-0.1-0.2-0.1-0.4c0-0.1,0.1-0.3,0.2-0.4C34,51.1,34.2,51,34.3,51z"/>
	</g>
	<g>
		<path class="st1" d="M36.5,52.7c0-0.7,0-1.4,0.1-2.1c-0.1,0-0.2,0-0.4,0c0-0.1,0-0.2,0-0.4c0.4,0,0.8,0,1.1,0c0,0.1,0,0.2,0,0.4
			c-0.1,0-0.2,0-0.4,0c0,0.7,0,1.4-0.1,2.1c0.1,0,0.2,0,0.3,0c0,0.1,0,0.2,0,0.4c-0.4,0-0.7,0-1.1,0c0-0.1,0-0.2,0-0.4
			C36.2,52.7,36.3,52.7,36.5,52.7z M36.9,51.6c0.3-0.3,0.6-0.6,0.9-1c-0.1,0-0.2,0-0.3,0c0-0.1,0-0.2,0-0.4c0.4,0,0.7,0,1.1,0
			c0,0.1,0,0.2,0,0.4c-0.1,0-0.2,0-0.3,0c-0.3,0.3-0.6,0.6-0.9,1c0.3,0.4,0.6,0.8,0.9,1.2c0.1,0,0.2,0,0.3,0c0,0.1,0,0.2,0,0.4
			c-0.4,0-0.8,0-1.2,0c0-0.1,0-0.2,0-0.4c0.1,0,0.2,0,0.3,0C37.5,52.3,37.2,52,36.9,51.6z"/>
	</g>
	<g>
		<path class="st1" d="M40.7,52.2c-0.3,0-0.7,0-1,0c-0.1,0.2-0.2,0.4-0.2,0.6c0.1,0,0.2,0,0.3,0c0,0.1,0,0.2,0,0.4
			c-0.4,0-0.8,0-1.1,0c0-0.1,0-0.2,0-0.4c0.1,0,0.2,0,0.3,0c0.3-0.7,0.6-1.4,0.8-2.1c-0.1,0-0.2,0-0.3,0c0-0.1,0-0.2,0-0.3
			c0.5,0,1,0,1.4,0c0,0.1,0,0.2,0,0.3c-0.1,0-0.2,0-0.4,0c0.3,0.7,0.5,1.4,0.8,2.2c0.1,0,0.2,0,0.3,0c0,0.1,0,0.2,0,0.4
			c-0.4,0-0.7,0-1.1,0c0-0.1,0-0.2,0-0.4c0.1,0,0.2,0,0.4,0C40.8,52.6,40.7,52.4,40.7,52.2z M40.6,51.8c-0.1-0.4-0.2-0.8-0.4-1.2
			c0,0,0,0,0,0c-0.1,0.4-0.3,0.8-0.4,1.2C40,51.8,40.3,51.8,40.6,51.8z"/>
	</g>
	<g>
		<path class="st1" d="M42.5,52.8c0-0.3,0-0.6,0-0.9c-0.3-0.4-0.6-0.8-0.8-1.2c-0.1,0-0.2,0-0.3,0c0-0.1,0-0.2,0-0.4
			c0.4,0,0.8,0,1.2,0c0,0.1,0,0.2,0,0.4c-0.1,0-0.2,0-0.4,0c0.2,0.3,0.4,0.6,0.6,0.9c0.2-0.3,0.4-0.6,0.6-0.9c-0.1,0-0.2,0-0.4,0
			c0-0.1,0-0.2,0-0.4c0.4,0,0.8,0,1.1,0c0,0.1,0,0.2,0,0.4c-0.1,0-0.3,0-0.4,0c-0.3,0.4-0.5,0.8-0.8,1.2c0,0.3,0,0.6,0,0.9
			c0.1,0,0.3,0,0.4,0c0,0.1,0,0.2,0,0.4c-0.4,0-0.8,0-1.2,0c0-0.1,0-0.2,0-0.4C42.3,52.8,42.4,52.8,42.5,52.8z"/>
	</g>
	<g>
		<path class="st1" d="M45.9,52.2c-0.3,0-0.7,0-1,0c-0.1,0.2-0.1,0.4-0.2,0.6c0.1,0,0.2,0,0.3,0c0,0.1,0,0.2,0,0.4
			c-0.4,0-0.8,0-1.1,0c0-0.1,0-0.2,0-0.4c0.1,0,0.2,0,0.3,0c0.3-0.7,0.5-1.4,0.8-2.2c-0.1,0-0.2,0-0.3,0c0-0.1,0-0.2,0-0.3
			c0.5,0,1,0,1.4,0c0,0.1,0,0.2,0,0.3c-0.1,0-0.2,0-0.4,0c0.3,0.7,0.5,1.4,0.8,2.2c0.1,0,0.2,0,0.3,0c0,0.1,0,0.2,0,0.4
			c-0.4,0-0.7,0-1.1,0c0-0.1,0-0.2,0-0.4c0.1,0,0.2,0,0.4,0C46,52.6,46,52.4,45.9,52.2z M45.8,51.9c-0.1-0.4-0.3-0.8-0.4-1.2
			c0,0,0,0,0,0c-0.1,0.4-0.3,0.8-0.4,1.2C45.2,51.9,45.5,51.9,45.8,51.9z"/>
	</g>
	<g>
		<path class="st1" d="M47.3,52.8c0-0.7,0-1.4,0-2.1c-0.1,0-0.2,0-0.4,0c0-0.1,0-0.2,0-0.4c0.4,0,0.8,0,1.1,0c0,0.1,0,0.2,0,0.4
			c-0.1,0-0.2,0-0.4,0c0,0.7,0,1.4,0,2.1c0.1,0,0.2,0,0.3,0c0,0.1,0,0.2,0,0.4c-0.4,0-0.7,0-1.1,0c0-0.1,0-0.2,0-0.4
			C47,52.8,47.2,52.8,47.3,52.8z M47.7,51.7c0.3-0.3,0.6-0.7,0.9-1c-0.1,0-0.2,0-0.3,0c0-0.1,0-0.2,0-0.4c0.4,0,0.7,0,1.1,0
			c0,0.1,0,0.2,0,0.4c-0.1,0-0.2,0-0.3,0c-0.3,0.3-0.6,0.7-0.9,1c0.3,0.4,0.6,0.8,0.9,1.1c0.1,0,0.2,0,0.3,0c0,0.1,0,0.2,0,0.4
			c-0.4,0-0.8,0-1.2,0c0-0.1,0-0.2,0-0.4c0.1,0,0.2,0,0.3,0C48.3,52.4,48,52.1,47.7,51.7z"/>
	</g>
	<g>
		<path class="st1" d="M51.2,51.2c0.1,0,0.3,0,0.4,0.1c0.1,0.1,0.2,0.2,0.2,0.4c0,0.1,0,0.3-0.1,0.4c-0.1,0.1-0.2,0.2-0.4,0.2
			c-0.1,0-0.3,0-0.4-0.1c-0.1-0.1-0.2-0.2-0.2-0.4c0-0.1,0-0.3,0.1-0.4C51,51.3,51.1,51.2,51.2,51.2z"/>
	</g>
	<g>
		<path class="st1" d="M55.7,51.9c0.1,0.1,0.3,0.1,0.4,0.2c-0.1,0.3-0.2,0.6-0.5,0.7c-0.2,0.2-0.5,0.3-0.9,0.3
			c-0.4,0-0.8-0.1-1.1-0.4c-0.3-0.3-0.4-0.6-0.4-1c0-0.4,0.1-0.8,0.4-1.1c0.3-0.3,0.6-0.4,1-0.4c0.4,0,0.7,0.1,0.9,0.3
			c0-0.1,0-0.2,0-0.3c0.1,0,0.2,0,0.4,0c0,0.3,0,0.6,0,0.9c-0.1,0-0.2,0-0.4,0c-0.1-0.2-0.2-0.3-0.4-0.4c-0.2-0.1-0.4-0.1-0.5-0.1
			c-0.3,0-0.5,0.1-0.7,0.3c-0.2,0.2-0.3,0.5-0.3,0.8c0,0.3,0.1,0.6,0.3,0.8c0.2,0.2,0.4,0.3,0.7,0.3c0.2,0,0.4-0.1,0.6-0.2
			C55.5,52.3,55.6,52.1,55.7,51.9z"/>
	</g>
	<g>
		<path class="st1" d="M58.1,51.9c-0.3,0-0.7,0-1,0c-0.1,0.2-0.1,0.4-0.2,0.6c0.1,0,0.2,0,0.3,0c0,0.1,0,0.2,0,0.4
			c-0.4,0-0.8,0-1.1,0c0-0.1,0-0.2,0-0.4c0.1,0,0.2,0,0.3,0c0.2-0.7,0.5-1.5,0.7-2.2c-0.1,0-0.2,0-0.3,0c0-0.1,0-0.2,0-0.3
			c0.5,0,1,0,1.4-0.1c0,0.1,0,0.2,0,0.3c-0.1,0-0.2,0-0.4,0c0.3,0.7,0.6,1.4,0.9,2.1c0.1,0,0.2,0,0.3,0c0,0.1,0,0.2,0,0.4
			c-0.4,0-0.7,0-1.1,0.1c0-0.1,0-0.2,0-0.4c0.1,0,0.2,0,0.4,0C58.3,52.3,58.2,52.1,58.1,51.9z M58,51.6c-0.1-0.4-0.3-0.8-0.4-1.2
			c0,0,0,0,0,0c-0.1,0.4-0.2,0.8-0.3,1.2C57.5,51.6,57.7,51.6,58,51.6z"/>
	</g>
	<g>
		<path class="st1" d="M59.5,52.5c0-0.7-0.1-1.4-0.1-2.1c-0.1,0-0.3,0-0.4,0c0-0.1,0-0.2,0-0.4c0.3,0,0.6,0,1,0
			c0.5,0.7,0.9,1.4,1.4,2.1c0-0.6-0.1-1.2-0.1-1.8c-0.1,0-0.3,0-0.4,0c0-0.1,0-0.2,0-0.4c0.4,0,0.8,0,1.2-0.1c0,0.1,0,0.2,0,0.4
			c-0.1,0-0.3,0-0.4,0c0,0.8,0.1,1.7,0.1,2.5c-0.1,0-0.3,0-0.4,0c-0.5-0.8-1-1.6-1.5-2.3c0,0.7,0.1,1.4,0.1,2c0.1,0,0.3,0,0.4,0
			c0,0.1,0,0.2,0,0.4c-0.4,0-0.8,0-1.2,0.1c0-0.1,0-0.2,0-0.4C59.3,52.5,59.4,52.5,59.5,52.5z"/>
	</g>
	<g>
		<path class="st1" d="M62.3,51.3c0-0.4,0.1-0.8,0.3-1.1c0.3-0.3,0.6-0.5,1-0.5c0.4,0,0.8,0.1,1.1,0.3c0.3,0.3,0.5,0.6,0.5,1
			c0,0.4-0.1,0.8-0.3,1.1c-0.3,0.3-0.6,0.5-1,0.5c-0.3,0-0.5,0-0.8-0.1c-0.2-0.1-0.4-0.3-0.6-0.5C62.4,51.8,62.3,51.5,62.3,51.3z
			 M62.7,51.2c0,0.3,0.1,0.6,0.3,0.8c0.2,0.2,0.4,0.3,0.7,0.3c0.3,0,0.5-0.1,0.7-0.4c0.2-0.2,0.3-0.5,0.2-0.8c0-0.3-0.1-0.5-0.3-0.7
			c-0.2-0.2-0.5-0.3-0.7-0.3c-0.3,0-0.5,0.1-0.7,0.4C62.8,50.7,62.7,50.9,62.7,51.2z"/>
	</g>
	<g>
		<path class="st1" d="M66,52.1c-0.1-0.7-0.1-1.4-0.2-2.1c-0.1,0-0.2,0-0.4,0c0-0.1,0-0.2,0-0.4c0.8-0.1,1.6-0.1,2.4-0.2
			c0,0.3,0,0.6,0.1,0.9c-0.1,0-0.2,0-0.4,0c0-0.2,0-0.3,0-0.5c-0.4,0-0.8,0.1-1.2,0.1c0,0.3,0,0.6,0.1,0.8c0.4,0,0.7-0.1,1.1-0.1
			c0,0.1,0,0.2,0,0.4c-0.4,0-0.7,0.1-1.1,0.1c0,0.3,0,0.6,0.1,0.9c0.4,0,0.8-0.1,1.2-0.1c0-0.2,0-0.3,0-0.5c0.1,0,0.2,0,0.4,0
			c0,0.3,0,0.6,0.1,0.9c-0.8,0.1-1.6,0.1-2.4,0.2c0-0.1,0-0.2,0-0.4C65.7,52.1,65.9,52.1,66,52.1z"/>
	</g>
</g>
<g>
	<g>
		<path class="st3" d="M13,47.1v-2.1h-0.4v-0.4H15v0.9h-0.4v-0.5h-1.2v0.8h1.1v0.4h-1.1v0.9h1.2v-0.5H15v0.9h-2.4v-0.4H13z"/>
	</g>
	<g>
		<path class="st3" d="M15.3,47.4v-1h0.4v0.3c0.2,0.3,0.4,0.5,0.7,0.5c0.1,0,0.3,0,0.4-0.1s0.1-0.2,0.1-0.3c0-0.1,0-0.2-0.1-0.3
			c-0.1-0.1-0.2-0.1-0.4-0.2C16,46.1,15.8,46,15.7,46c-0.1-0.1-0.2-0.1-0.3-0.3c-0.1-0.1-0.1-0.2-0.1-0.4c0-0.2,0.1-0.4,0.2-0.6
			c0.2-0.1,0.4-0.2,0.6-0.2c0.2,0,0.4,0.1,0.6,0.2v-0.2h0.3v0.9h-0.3v-0.2c-0.1-0.2-0.3-0.3-0.6-0.3c-0.2,0-0.3,0-0.4,0.1
			c-0.1,0.1-0.1,0.2-0.1,0.3c0,0.1,0,0.1,0.1,0.2c0,0.1,0.1,0.1,0.2,0.1c0.1,0,0.2,0.1,0.4,0.1c0.2,0.1,0.4,0.1,0.5,0.2
			c0.1,0.1,0.2,0.2,0.3,0.3c0.1,0.1,0.1,0.3,0.1,0.5c0,0.2-0.1,0.4-0.3,0.6c-0.2,0.2-0.4,0.2-0.6,0.2c-0.3,0-0.5-0.1-0.7-0.3v0.2
			H15.3z"/>
	</g>
	<g>
		<path class="st3" d="M18.3,47.1v-2.1h-0.6v0.7h-0.4v-1.1h2.3v1.1h-0.4v-0.7h-0.6v2.1h0.4v0.4H18v-0.4H18.3z"/>
	</g>
	<g>
		<path class="st3" d="M19.7,47.4v-0.5h0.5v0.5H19.7z"/>
	</g>
</g>
<g>
	<g>
		<path class="st3" d="M72.2,47.1v-2.1h-0.4v-0.3h0.8v2.5h0.4v0.3h-1.1v-0.3H72.2z"/>
	</g>
	<g>
		<path class="st3" d="M73.7,46.6H74c0,0.2,0.1,0.3,0.2,0.4c0.1,0.1,0.2,0.2,0.3,0.2c0.2,0,0.3-0.1,0.4-0.3c0.1-0.2,0.2-0.4,0.2-0.8
			c-0.2,0.2-0.4,0.3-0.7,0.3c-0.2,0-0.4-0.1-0.6-0.2c-0.2-0.2-0.2-0.4-0.2-0.6c0-0.3,0.1-0.5,0.2-0.7c0.2-0.2,0.4-0.3,0.6-0.3
			c0.3,0,0.5,0.1,0.7,0.4c0.2,0.2,0.3,0.6,0.3,1.1c0,0.5-0.1,0.8-0.3,1.1c-0.2,0.3-0.4,0.4-0.7,0.4c-0.3,0-0.4-0.1-0.6-0.2
			C73.8,47,73.7,46.8,73.7,46.6z M75.1,45.6c-0.1-0.5-0.2-0.8-0.6-0.8c-0.2,0-0.3,0.1-0.4,0.2c-0.1,0.1-0.1,0.3-0.1,0.4
			c0,0.2,0,0.3,0.1,0.4c0.1,0.1,0.2,0.2,0.4,0.2C74.7,46,74.9,45.9,75.1,45.6z"/>
	</g>
	<g>
		<path class="st3" d="M76.4,45.9c-0.3-0.2-0.4-0.4-0.4-0.7c0-0.2,0.1-0.4,0.3-0.6c0.2-0.1,0.4-0.2,0.6-0.2c0.3,0,0.5,0.1,0.7,0.2
			c0.2,0.1,0.2,0.3,0.2,0.5c0,0.3-0.1,0.5-0.4,0.7c0.3,0.1,0.5,0.4,0.5,0.7c0,0.2-0.1,0.4-0.3,0.6c-0.2,0.2-0.4,0.2-0.7,0.2
			c-0.3,0-0.6-0.1-0.8-0.2s-0.3-0.3-0.3-0.6C75.9,46.3,76,46.1,76.4,45.9z M76.3,46.6c0,0.1,0.1,0.3,0.2,0.4
			c0.1,0.1,0.2,0.1,0.4,0.1c0.2,0,0.3,0,0.4-0.1c0.1-0.1,0.2-0.2,0.2-0.4c0-0.2-0.1-0.3-0.2-0.4c-0.1-0.1-0.2-0.1-0.4-0.1
			c-0.2,0-0.3,0-0.4,0.1C76.3,46.3,76.3,46.5,76.3,46.6z M76.3,45.3c0,0.1,0,0.3,0.1,0.3c0.1,0.1,0.2,0.1,0.4,0.1
			c0.1,0,0.3,0,0.4-0.1c0.1-0.1,0.1-0.2,0.1-0.3c0-0.3-0.2-0.4-0.5-0.4c-0.2,0-0.3,0-0.4,0.1C76.4,45.1,76.3,45.2,76.3,45.3z"/>
	</g>
	<g>
		<path class="st3" d="M78.1,46.5h0.4c0,0.2,0.1,0.3,0.2,0.5c0.1,0.1,0.2,0.2,0.4,0.2c0.2,0,0.3-0.1,0.4-0.2s0.2-0.3,0.2-0.5
			c0-0.2-0.1-0.3-0.2-0.4c-0.1-0.1-0.2-0.2-0.4-0.2c-0.2,0-0.4,0.1-0.6,0.3c-0.1-0.1-0.2-0.2-0.3-0.2l0.1-1.5h1.5v0.8h-0.4V45h-0.9
			l-0.1,0.8c0.2-0.1,0.4-0.2,0.6-0.2c0.3,0,0.5,0.1,0.6,0.3c0.2,0.2,0.2,0.4,0.2,0.7c0,0.3-0.1,0.5-0.3,0.7
			c-0.2,0.2-0.4,0.3-0.7,0.3c-0.3,0-0.5-0.1-0.7-0.2C78.2,47.1,78.2,46.8,78.1,46.5z"/>
	</g>
</g>
<g>
	<path class="st1" d="M24.6,63.6l-1-1.3l-1.2,0.5l-0.8-1l6.1-2.2l0.7,0.9l-3.7,5.3l-0.8-1.1L24.6,63.6z M24.6,61.9l0.7,0.9l1.4-1.8
		L24.6,61.9z"/>
	<path class="st1" d="M25.9,66.9l4-4.7l1.2,1.1c0.5,0.5,0.8,1,0.9,1.6c0,0.6-0.2,1.2-0.7,1.9l-0.6,0.8c-0.5,0.6-1.1,1-1.7,1
		c-0.6,0.1-1.2-0.1-1.8-0.6L25.9,66.9z M30.1,63.8L27.5,67l0.3,0.2c0.3,0.3,0.6,0.4,0.9,0.3c0.3-0.1,0.6-0.3,0.9-0.7l0.7-0.8
		c0.4-0.4,0.6-0.8,0.6-1.1c0-0.3-0.1-0.5-0.4-0.8L30.1,63.8z"/>
	<path class="st1" d="M33.2,70.1l3-3.4l1.2,0.7L33,71.9l-1.1-0.6l1.4-6.3l1.2,0.7L33.2,70.1z"/>
	<path class="st1" d="M39.9,71.7l-1.9-0.6l-0.5,1.6l2.2,0.7l-0.3,1l-3.4-1l1.8-5.9l3.4,1l-0.3,1l-2.2-0.7l-0.4,1.4l1.9,0.6
		L39.9,71.7z"/>
	<path class="st1" d="M45.6,75.1L44.4,75l-1.5-4.2l-0.3,4l-1.2-0.1l0.5-6.1l1.2,0.1l1.5,4.2l0.3-4l1.2,0.1L45.6,75.1z"/>
	<path class="st1" d="M51.1,69.5l-1.5,0.2l0.6,5.1L49,74.9l-0.6-5.1L46.9,70l-0.1-1l4.2-0.5L51.1,69.5z"/>
	<path class="st1" d="M55.3,67l1.4,4c0.2,0.6,0.2,1.1,0,1.6c-0.2,0.4-0.6,0.8-1.2,1c-0.6,0.2-1.2,0.2-1.6,0c-0.4-0.2-0.8-0.6-1-1.2
		l-1.4-4l1.2-0.4l1.4,4c0.1,0.3,0.2,0.5,0.4,0.7c0.2,0.1,0.4,0.1,0.7,0c0.3-0.1,0.4-0.2,0.5-0.4c0.1-0.2,0-0.4-0.1-0.7l-1.4-4
		L55.3,67z"/>
	<path class="st1" d="M59.7,69l-0.5,0.3l1.2,1.9l-1.1,0.6L56,66.6l1.7-1c0.5-0.3,1-0.4,1.5-0.3c0.5,0.1,0.8,0.4,1.1,0.9
		c0.4,0.7,0.5,1.3,0.1,1.9l2.2,1.6l0,0.1l-1.1,0.7L59.7,69z M58.6,68.4l0.6-0.4c0.2-0.1,0.3-0.3,0.4-0.5c0-0.2,0-0.4-0.2-0.7
		c-0.3-0.5-0.7-0.7-1.1-0.4l-0.6,0.4L58.6,68.4z"/>
	<path class="st1" d="M64.7,64.6l-1.4,1.3l1.1,1.2l1.7-1.5l0.7,0.8l-2.6,2.4L60,64.1l2.6-2.4l0.7,0.8L61.6,64l1,1.1l1.4-1.3
		L64.7,64.6z"/>
	<path class="st1" d="M68.2,61.9c-0.2-0.2-0.4-0.2-0.6-0.2c-0.2,0-0.4,0.1-0.7,0.3c-0.6,0.4-1,0.5-1.5,0.6c-0.4,0-0.8-0.1-1.1-0.3
		c-0.4-0.3-0.6-0.7-0.7-1.2s0.1-1,0.5-1.4c0.2-0.3,0.5-0.5,0.8-0.7c0.3-0.1,0.6-0.2,0.9-0.1c0.3,0,0.6,0.2,0.9,0.4l-0.7,1
		c-0.2-0.2-0.4-0.3-0.6-0.2c-0.2,0-0.4,0.1-0.5,0.3c-0.1,0.2-0.2,0.3-0.2,0.5c0,0.2,0.1,0.3,0.3,0.5c0.1,0.1,0.3,0.1,0.5,0.1
		c0.2,0,0.4-0.1,0.8-0.3c0.5-0.4,1-0.5,1.4-0.6c0.4,0,0.8,0.1,1.2,0.4c0.4,0.3,0.7,0.7,0.7,1.2c0,0.5-0.1,0.9-0.5,1.4
		c-0.2,0.3-0.5,0.6-0.8,0.7c-0.3,0.2-0.7,0.2-1,0.2c-0.4,0-0.7-0.2-1-0.4l0.7-1c0.3,0.2,0.5,0.3,0.7,0.3c0.2,0,0.4-0.1,0.6-0.4
		C68.6,62.5,68.6,62.2,68.2,61.9z"/>
</g>
<g>
	<g>
		<path class="st1" d="M21.2,42.6h-9.5c-0.1,0-0.1,0-0.1-0.1s0-0.1,0.1-0.1h9.5C21.3,42.5,21.3,42.5,21.2,42.6
			C21.3,42.6,21.3,42.6,21.2,42.6z"/>
	</g>
	<g>
		<path class="st1" d="M21.2,49.5h-9.5c-0.1,0-0.1,0-0.1-0.1s0-0.1,0.1-0.1h9.5C21.3,49.4,21.3,49.4,21.2,49.5
			C21.3,49.5,21.3,49.5,21.2,49.5z"/>
	</g>
</g>
<g>
	<g>
		<path class="st1" d="M80.7,42.6h-9.5c-0.1,0-0.1,0-0.1-0.1s0-0.1,0.1-0.1h9.5C80.7,42.5,80.8,42.5,80.7,42.6
			C80.8,42.6,80.7,42.6,80.7,42.6z"/>
	</g>
	<g>
		<path class="st1" d="M80.7,49.5h-9.5c-0.1,0-0.1,0-0.1-0.1s0-0.1,0.1-0.1h9.5C80.7,49.4,80.8,49.4,80.7,49.5
			C80.8,49.5,80.7,49.5,80.7,49.5z"/>
	</g>
</g>
<g>
	<g>
		<g>
			<path class="st3" d="M41.9,55.9L41.9,55.9L41.9,55.9 M41.7,56.1l2.4,2.4l-0.7,0.7L41,56.8L41.7,56.1 M41.7,55.3
				c-0.1,0-0.2,0-0.3,0.1l-1,1c-0.2,0.2-0.2,0.5,0,0.7l2.7,2.7c0.1,0.1,0.2,0.1,0.3,0.1c0.1,0,0.2,0,0.3-0.1l1-1
				c0.2-0.2,0.2-0.5,0-0.7l-2.7-2.7C42,55.4,41.9,55.3,41.7,55.3L41.7,55.3z"/>
		</g>
	</g>
	<g>
		<g>
			<path class="st3" d="M50,65.4c-0.1,0-0.2,0-0.2-0.1L44,59.5c-0.1-0.1-0.1-0.3,0-0.5c0.1-0.1,0.3-0.1,0.5,0l5.8,5.8
				c0.1,0.1,0.1,0.3,0,0.5C50.2,65.4,50.1,65.4,50,65.4z"/>
		</g>
	</g>
	<g>
		<g>
			<path class="st3" d="M50.4,55.9L50.4,55.9L50.4,55.9 M50.3,56.1l0.7,0.7l-2.4,2.4l-0.7-0.7L50.3,56.1 M50.3,55.3
				c-0.1,0-0.2,0-0.3,0.1l-2.7,2.7c-0.2,0.2-0.2,0.5,0,0.7l1,1c0.1,0.1,0.2,0.1,0.3,0.1c0.1,0,0.2,0,0.3-0.1l2.7-2.7
				c0.2-0.2,0.2-0.5,0-0.7l-1-1C50.5,55.4,50.4,55.3,50.3,55.3L50.3,55.3z"/>
		</g>
	</g>
	<g>
		<g>
			<path class="st3" d="M42,65.4c-0.1,0-0.2,0-0.2-0.1c-0.1-0.1-0.1-0.3,0-0.5l5.8-5.8c0.1-0.1,0.3-0.1,0.5,0c0.1,0.1,0.1,0.3,0,0.5
				l-5.8,5.8C42.2,65.4,42.1,65.4,42,65.4z"/>
		</g>
	</g>
</g>
</svg>
